HIERARCHY
ROOT Hips
{
  OFFSET -59.652 91.3921 -6.26488
  CHANNELS 6 Xposition Yposition Zposition Zrotation Xrotation Yrotation
  JOINT ToSpine
  {
    OFFSET -2.69724 7.43032 -0.144315
    CHANNELS 3 Zrotation Xrotation Yrotation
    JOINT Spine
    {
      OFFSET -0.0310711 10.7595 1.96963
      CHANNELS 3 Zrotation Xrotation Yrotation
      JOINT Spine1
      {
        OFFSET 13.1342 3.43533 0.764692
        CHANNELS 3 Zrotation Xrotation Yrotation
        JOINT Neck
        {
          OFFSET 29.8703 7.82586 -0.130764
          CHANNELS 3 Zrotation Xrotation Yrotation
          JOINT Head
          {
            OFFSET 9.52751 0.295786 -0.907742
            CHANNELS 3 Zrotation Xrotation Yrotation
            End Site
            {
              OFFSET 16.4037 0.713936 2.7358
            }
          }
        }
        JOINT LeftShoulder
        {
          OFFSET 27.5574 4.95586 2.47156
          CHANNELS 3 Zrotation Xrotation Yrotation
          JOINT LeftArm
          {
            OFFSET 1.20734 -0.998971 20.1238
            CHANNELS 3 Zrotation Xrotation Yrotation
            JOINT LeftForeArm
            {
              OFFSET 26.8049 -0.0536703 -0.155908
              CHANNELS 3 Zrotation Xrotation Yrotation
              JOINT LeftHand
              {
                OFFSET 26.6817 0 0.320147
                CHANNELS 3 Zrotation Xrotation Yrotation
                End Site
                {
                  OFFSET 18.6119 0 0.382219
                }
              }
            }
          }
        }
        JOINT RightShoulder
        {
          OFFSET 27.5927 4.71444 -2.65209
          CHANNELS 3 Zrotation Xrotation Yrotation
          JOINT RightArm
          {
            OFFSET 2.83739 -1.17114 -18.7564
            CHANNELS 3 Zrotation Xrotation Yrotation
            JOINT RightForeArm
            {
              OFFSET 28.839 -0.0548439 1.22491
              CHANNELS 3 Zrotation Xrotation Yrotation
              JOINT RightHand
              {
                OFFSET 26.5114 0 -0.101894
                CHANNELS 3 Zrotation Xrotation Yrotation
                End Site
                {
                  OFFSET 18.2168 0 0
                }
              }
            }
          }
        }
      }
    }
  }
  JOINT LeftUpLeg
  {
    OFFSET -4.76168 -1.9167 -10.2353
    CHANNELS 3 Zrotation Xrotation Yrotation
    JOINT LeftLeg
    {
      OFFSET 2.55951 -42.0585 -8.02213
      CHANNELS 3 Zrotation Xrotation Yrotation
      JOINT LeftFoot
      {
        OFFSET 3.16357 -42.5282 -3.95426
        CHANNELS 3 Zrotation Xrotation Yrotation
        JOINT LeftToeBase
        {
          OFFSET 0.346054 -6.02161 12.8035
          CHANNELS 3 Zrotation Xrotation Yrotation
          End Site
          {
            OFFSET 0.134235 -1.35082 5.13018
          }
        }
      }
    }
  }
  JOINT RightUpLeg
  {
    OFFSET -4.94151 -1.41743 10.6446
    CHANNELS 3 Zrotation Xrotation Yrotation
    JOINT RightLeg
    {
      OFFSET -2.56294 -42.0364 -7.94377
      CHANNELS 3 Zrotation Xrotation Yrotation
      JOINT RightFoot
      {
        OFFSET -3.0952 -42.555 -4.02241
        CHANNELS 3 Zrotation Xrotation Yrotation
        JOINT RightToeBase
        {
          OFFSET -0.0828122 -6.13587 12.8035
          CHANNELS 3 Zrotation Xrotation Yrotation
          End Site
          {
            OFFSET -0.131328 -1.35082 5.13018
          }
        }
      }
    }
  }
}
MOTION
Frames:	13
Frame Time:	0.0333333
-46.1841 89.0156 -7.45414 61.6677 -30.5802 -40.6994 -70.1915 0 88.8779 110.046 64.5017 -6.5346 -4.67054 13.9565 3.99032 -159.169 23.8327 175.822 -137.72 60.393 172.06 -2.11646 -22.025 -37.1942 -94.7031 20.8026 -105.618 13.825 1.33493 -83.9345 0.420957 0.000575384 0.35866 -0.394175 4.98042 23.1119 -119.995 2.68456 97.6007 -0.809735 1.01599 34.35 0.58676 0.000330876 0.0646653 -52.115 4.97417 98.8543 -6.11659 57.2308 -17.1033 -12.9104 4.65121 2.49142 6.11337 -12.4196 -5.90676 -14.3892 2.13057 124.735 1.22445 59.4554 -14.2801 1.47449 -9.32667 0.799194 2.27246 4.41759 -14.0368 
-49.4859 88.7388 -8.35517 64.0443 -23.7063 -31.9768 -70.1915 0 88.8779 112.006 64.7325 -10.6927 -6.21642 14.5579 3.97639 -156.333 26.447 173.368 -137.833 63.2758 171.772 -2.581 -23.4765 -37.7155 -85.7852 22.3018 -114.634 20.5375 1.05615 -86.6248 0.420957 0.000575384 0.35866 -0.11689 4.39052 18.3603 -122.561 0.44825 99.6495 0.141361 -0.277095 42.0004 0.58676 0.000330876 0.0646653 -55.0671 2.83902 98.7577 -5.44885 49.7974 -19.2342 -16.7938 3.23266 2.8198 10.2273 -21.3688 -1.0303 -14.9046 2.25207 122.275 2.74678 57.2213 -7.50649 3.38305 -8.65548 0.631471 5.22563 3.69218 -29.2535 
-52.5377 88.2491 -8.50224 64.3783 -16.496 -24.6559 -70.1915 0 88.8779 112.619 65.5226 -12.5268 -7.60939 15.6773 3.74641 -154.061 29.0592 169.563 -135.409 65.7008 168.666 -2.85956 -24.5441 -37.5524 -77.7353 23.1441 -123.336 24.3167 0.218521 -88.3136 0.420957 0.000575384 0.35866 0.099097 3.47223 14.0128 -125.211 0.791883 103.712 -0.306485 0.172985 48.3536 0.58676 0.000330876 0.0646653 -56.1255 3.6025 102.103 -2.04415 42.6194 -0.158681 -15.1432 -5.4306 0.755207 9.55794 -20.3113 -5.85677 -13.6422 1.95981 118.909 1.42648 55.6454 -11.9192 4.00819 -6.47161 0.349592 2.212 4.80947 -13.7967 
-55.3509 88.7901 -7.94344 64.7557 -9.28132 -19.2477 -70.1915 0 88.8779 116.542 65.4612 -19.0591 -10.5449 16.6978 3.04531 -150.765 31.5797 164.433 -133.75 68.8132 168.287 -2.74952 -25.0215 -35.8648 -71.3658 22.6335 -131.864 26.3285 0.0220019 -90.1108 0.420957 0.000575384 0.35866 0.281275 3.9469 8.87628 -128.47 0.762116 104.244 -1.98965 1.32541 54.5932 0.58676 0.000330876 0.0646653 -56.5488 5.8513 106.864 -0.355379 35.5955 6.8612 -8.37982 -6.82943 -0.0540581 7.24042 -15.2461 -2.71481 -14.048 -0.22572 116.885 0.957066 52.5965 -11.7238 4.57978 -4.51591 0.074012 1.66421 4.30751 -11.0041 
-58.0144 89.3741 -6.78849 64.761 -1.60385 -14.7424 -70.1915 0 88.8779 119.568 64.6549 -25.8156 -13.3671 17.1985 2.40411 -147.069 33.9043 157.574 -131.025 71.9862 166.336 -2.20223 -24.3978 -33.126 -66.5249 20.7581 -139.275 27.8895 -1.56609 -91.7951 0.420957 0.000575384 0.35866 0.391696 5.34424 7.143 -133.5 0.974918 102.732 -2.85875 1.5567 60.2687 0.58676 0.000330876 0.0646653 -52.8614 7.97139 104.318 -1.85176 31.605 -2.51702 -8.30217 -7.03627 -0.0910964 6.1211 -14.0605 10.0461 -14.7345 -2.91964 116.005 1.32695 50.068 -8.60047 5.5401 -2.96005 -0.21201 1.53713 0.367869 -9.83374 
-59.4648 90.0519 -5.30766 64.0429 5.72413 -9.27396 -70.1915 0 88.8779 114.259 64.9044 -20.7641 -10.5459 17.5084 -0.838837 -142.919 35.6858 152.51 -131.208 75.3895 167.433 -1.54285 -23.1094 -30.0943 -64.3885 18.2156 -143.971 27.1282 -2.2332 -93.6668 0.420957 0.000575384 0.35866 0.2476 6.28121 9.84404 -138.491 1.23727 103.233 -2.17232 0.971515 64.5531 0.58676 0.000330876 0.0646653 -48.3355 12.4315 102.888 -2.35293 30.1546 -7.77655 -6.45844 -3.20267 0.322894 6.57767 -14.4213 4.68152 -16.6757 -4.80991 114.684 1.53639 47.7576 -5.29997 4.8151 -0.850044 -0.373714 2.14427 -5.82735 -11.329 
-59.8739 90.9596 -4.47226 64.7255 10.4332 -5.22121 -70.1915 0 88.8779 112.819 65.6229 -19.566 -8.55981 18.4155 -2.36011 -139.06 38.1126 152.133 -138.841 79.6048 173.897 -1.42613 -23.0585 -29.282 -63.8204 16.5074 -145.897 25.6589 -2.502 -94.4767 0.420957 0.000575384 0.35866 0.0551963 6.75064 12.8611 -140.907 2.2573 103.628 0.428452 -0.220545 67.5682 0.58676 0.000330876 0.0646653 -48.6595 12.493 99.9909 -1.92023 25.3133 -6.04336 -6.71093 -1.31406 0.601382 6.60779 -14.6967 7.38576 -21.022 -6.57466 112.659 2.25173 44.3652 0.532404 3.17453 -0.115763 -0.200393 2.6559 -11.5757 -20.1379 
-59.8156 91.4865 -3.98723 65.4843 13.1052 -2.17975 -70.1915 0 88.8779 112.765 66.488 -20.8683 -8.51465 19.1331 -1.58087 -134.587 40.0276 152.851 -160.82 82.9461 -164.191 -1.08998 -22.0197 -28.0795 -63.3814 16.7895 -148.62 24.5951 -2.31838 -94.3303 0.420957 0.000575384 0.35866 -0.0885703 7.1295 14.8477 -141.75 2.31767 102.284 3.01414 -1.13002 69.9282 0.58676 0.000330876 0.0646653 -49.2549 12.8638 98.8279 -0.701678 24.1213 -2.44029 -6.10238 -2.47349 0.375242 5.64702 -12.5454 3.6857 -24.4167 -8.53478 107.456 1.84368 41.3081 0.366213 9.06011 -6.99141 0.0235949 2.16987 -3.16963 -13.6063 
-59.68 91.9416 -3.64094 66.3978 15.3397 0.380815 -70.1915 0 88.8779 111.387 67.5772 -22.1994 -8.41398 19.2552 0.901665 -131.843 41.1508 152.693 -174.387 84.3273 -151.77 -0.931438 -21.4671 -27.5399 -63.7704 17.2537 -151.146 23.3756 -1.9548 -93.789 0.420957 0.000575384 0.35866 -0.249053 6.94335 17.3964 -143.281 2.67141 100.495 3.41825 -1.11194 72.3205 0.58676 0.000330876 0.0646653 -49.9828 14.4015 98.8829 -0.112941 22.7022 -5.21209 -6.75297 -1.84373 0.531927 5.13878 -11.5179 3.18322 -27.1774 -9.79597 102.039 2.0951 39.6181 3.18427 9.00491 -8.51432 0.296681 2.2913 -2.82766 -14.063 
-59.4601 91.9925 -3.33212 67.0895 17.902 2.73925 -70.1915 0 88.8779 107.974 68.6223 -22.1193 -7.62242 18.8018 3.93715 -131.077 41.8353 152.717 173.649 84.8272 -141.758 -0.904867 -21.3251 -27.5469 -64.3035 16.6524 -153.287 21.9284 -1.45526 -92.9025 0.420957 0.000575384 0.35866 -0.468088 6.41821 21.5778 -145.092 5.09163 99.9031 4.47395 -1.27051 74.3312 0.58676 0.000330876 0.0646653 -48.7275 15.7398 97.6123 0.328468 23.9818 -7.69302 -6.17877 -2.37264 0.396344 4.25727 -9.50949 1.73074 -29.1202 -11.6223 96.9414 2.44358 39.4217 6.36583 6.95578 -8.25596 0.380407 2.95536 -4.7006 -19.8114 
-59.3315 92.0448 -3.84791 67.5517 19.9496 4.98451 -70.1915 0 88.8779 105.009 68.7704 -18.8521 -6.27948 18.6371 3.61068 -130.867 42.2134 154.87 155.776 83.9038 -124.895 -0.748919 -20.8403 -26.8331 -65.0263 17.7736 -154.562 20.9813 -1.33515 -92.7676 0.420957 0.000575384 0.35866 -0.570173 5.96633 24.1276 -145.673 5.68554 98.919 4.56899 -1.19267 75.5214 0.58676 0.000330876 0.0646653 -47.1581 16.2798 94.7059 0.466714 26.1772 -8.94581 -6.30836 -3.93914 0.200483 3.71511 -8.29825 1.1818 -31.1901 -14.2438 89.3027 2.6353 38.6455 8.78428 5.59256 -7.63044 0.37777 2.78933 -3.91197 -18.1505 
-59.2826 91.9904 -4.50084 68.284 19.6205 5.94985 -70.1915 0 88.8779 101.872 69.6714 -16.007 -4.89746 18.9767 4.36541 -130.44 42.5398 156.589 147.993 83.2064 -117.171 -0.784503 -20.5284 -27.7597 -66.1237 18.6809 -153.699 19.9436 -1.48365 -93.3596 0.420957 0.000575384 0.35866 -0.57404 5.52054 25.273 -145.191 4.79886 98.753 4.70155 -1.27362 74.9989 0.58676 0.000330876 0.0646653 -46.6704 17.4524 92.9449 -0.346341 28.5844 -8.10991 -6.17608 -5.80326 -0.0587862 3.27499 -7.12666 0.211352 -32.6351 -15.1697 85.3065 2.71239 38.0198 10.4676 5.43998 -7.62208 0.388016 3.07405 -1.46377 -19.4776 
-59.2911 91.9069 -4.93358 69.3426 18.2942 4.95736 -70.1915 0 88.8779 100.517 70.7124 -16.8982 -4.71267 19.7189 5.25153 -128.845 41.9603 155.367 152.545 83.4938 -121.866 -0.647802 -19.8291 -27.6542 -66.5362 19.2248 -153.073 18.653 -1.59707 -93.9945 0.420957 0.000575384 0.35866 -0.705356 6.01954 26.3261 -144.175 4.44044 98.0642 6.4123 -1.91175 73.5193 0.58676 0.000330876 0.0646653 -47.2528 17.6233 92.8489 -1.22783 30.8267 -8.05684 -5.4656 -7.43872 -0.327273 1.47634 -4.07508 2.53733 -32.8652 -16.018 84.2692 2.77616 38.5164 10.1087 3.82358 -7.00486 0.423254 3.1867 -0.556086 -19.8134 
